<svg width="41" height="41" viewBox="0 0 41 41" fill="none" xmlns="http://www.w3.org/2000/svg">
<path d="M20.3958 5.9165C12.1264 5.9165 5.39575 12.6472 5.39575 20.9165C5.39575 29.1858 12.1264 35.9165 20.3958 35.9165C28.6651 35.9165 35.3958 29.1858 35.3958 20.9165C35.3958 12.6472 28.6651 5.9165 20.3958 5.9165ZM20.3958 8.4165C27.3139 8.4165 32.8958 13.9983 32.8958 20.9165C32.8958 27.8347 27.3139 33.4165 20.3958 33.4165C13.4776 33.4165 7.89575 27.8347 7.89575 20.9165C7.89575 13.9983 13.4776 8.4165 20.3958 8.4165ZM12.405 17.4229L10.8865 19.4102C10.8865 19.4102 12.7892 20.9165 15.3958 20.9165C18.0023 20.9165 19.905 19.4102 19.905 19.4102L18.3865 17.4229C18.3865 17.4229 17.0167 18.4165 15.3958 18.4165C13.7748 18.4165 12.405 17.4229 12.405 17.4229ZM22.405 17.4229L20.8865 19.4102C20.8865 19.4102 22.7892 20.9165 25.3958 20.9165C28.0023 20.9165 29.905 19.4102 29.905 19.4102L28.3865 17.4229C28.3865 17.4229 27.0167 18.4165 25.3958 18.4165C23.7748 18.4165 22.405 17.4229 22.405 17.4229ZM20.3958 24.6665C17.7892 24.6665 15.8865 26.1729 15.8865 26.1729L17.405 28.1602C17.405 28.1602 18.7748 27.1665 20.3958 27.1665C22.0167 27.1665 23.3865 28.1602 23.3865 28.1602L24.905 26.1729C24.905 26.1729 23.0023 24.6665 20.3958 24.6665Z" fill="#E0CFBA"/>
</svg>
