<svg width="41" height="41" viewBox="0 0 41 41" fill="none" xmlns="http://www.w3.org/2000/svg">
<path d="M20.3958 5.9165C12.1243 5.9165 5.39575 12.645 5.39575 20.9165C5.39575 29.188 12.1243 35.9165 20.3958 35.9165C28.6672 35.9165 35.3958 29.188 35.3958 20.9165C35.3958 12.645 28.6672 5.9165 20.3958 5.9165ZM20.3958 8.4165C27.3147 8.4165 32.8958 13.9976 32.8958 20.9165C32.8958 27.8354 27.3147 33.4165 20.3958 33.4165C13.4768 33.4165 7.89575 27.8354 7.89575 20.9165C7.89575 13.9976 13.4768 8.4165 20.3958 8.4165ZM14.7708 15.9165C13.7356 15.9165 12.8958 16.7563 12.8958 17.7915C12.8958 18.8267 13.7356 19.6665 14.7708 19.6665C15.8059 19.6665 16.6458 18.8267 16.6458 17.7915C16.6458 16.7563 15.8059 15.9165 14.7708 15.9165ZM26.0208 15.9165C24.9856 15.9165 24.1458 16.7563 24.1458 17.7915C24.1458 18.8267 24.9856 19.6665 26.0208 19.6665C27.0559 19.6665 27.8958 18.8267 27.8958 17.7915C27.8958 16.7563 27.0559 15.9165 26.0208 15.9165ZM13.9114 24.6665L11.7629 25.9165C13.4915 28.8999 16.7043 30.9165 20.3958 30.9165C24.0872 30.9165 27.3 28.8999 29.0286 25.9165L26.8801 24.6665C25.5813 26.9077 23.179 28.4165 20.3958 28.4165C17.6125 28.4165 15.2102 26.9077 13.9114 24.6665Z" fill="#E0CFBA"/>
</svg>
