<svg width="41" height="41" viewBox="0 0 41 41" fill="none" xmlns="http://www.w3.org/2000/svg">
<path d="M20.3958 5.9165C12.1243 5.9165 5.39575 12.645 5.39575 20.9165C5.39575 29.188 12.1243 35.9165 20.3958 35.9165C28.6672 35.9165 35.3958 29.188 35.3958 20.9165C35.3958 12.645 28.6672 5.9165 20.3958 5.9165ZM20.3958 8.4165C27.3147 8.4165 32.8958 13.9976 32.8958 20.9165C32.8958 27.8354 27.3147 33.4165 20.3958 33.4165C13.4768 33.4165 7.89575 27.8354 7.89575 20.9165C7.89575 13.9976 13.4768 8.4165 20.3958 8.4165ZM13.5208 14.6665C12.4856 14.6665 11.6458 15.5063 11.6458 16.5415C11.6458 16.6587 11.6555 16.771 11.6848 16.8931C11.7385 17.1909 11.8606 17.4448 12.0364 17.6743C12.9739 19.2905 15.3958 20.9165 15.3958 20.9165C15.3958 20.9165 19.1458 18.5337 19.1458 16.5415C19.1458 15.5063 18.3059 14.6665 17.2708 14.6665C16.2356 14.6665 15.3958 15.5063 15.3958 16.5415C15.3958 15.5063 14.5559 14.6665 13.5208 14.6665ZM23.5208 14.6665C22.4856 14.6665 21.6458 15.5063 21.6458 16.5415C21.6458 16.6587 21.6555 16.771 21.6848 16.8931C21.7385 17.1909 21.8606 17.4448 22.0364 17.6743C22.9739 19.2905 25.3958 20.9165 25.3958 20.9165C25.3958 20.9165 27.8811 19.3052 28.7942 17.6353C28.9944 17.2642 29.1458 16.9028 29.1458 16.5415C29.1458 15.5063 28.3059 14.6665 27.2708 14.6665C26.2356 14.6665 25.3958 15.5063 25.3958 16.5415C25.3958 15.5063 24.5559 14.6665 23.5208 14.6665ZM13.9114 24.6665L11.7629 25.9165C13.4915 28.8999 16.7043 30.9165 20.3958 30.9165C24.0872 30.9165 27.3 28.8999 29.0286 25.9165L26.8801 24.6665C25.5813 26.9077 23.179 28.4165 20.3958 28.4165C17.6125 28.4165 15.2102 26.9077 13.9114 24.6665Z" fill="#E0CFBA"/>
</svg>
