<svg width="54" height="33" viewBox="0 0 54 33" fill="none" xmlns="http://www.w3.org/2000/svg">
<path d="M37.2305 0.350952C45.9656 0.350984 53.0469 7.51442 53.0469 16.351C53.0469 25.1875 45.9656 32.3509 37.2305 32.351C33.3151 32.351 29.7327 30.9108 26.9707 28.5267C24.2087 30.9105 20.6271 32.351 16.7119 32.351C7.97676 32.351 0.895508 25.1875 0.895508 16.351C0.895508 7.5144 7.97676 0.350952 16.7119 0.350952C20.6268 0.350955 24.2088 1.79069 26.9707 4.17419C29.7327 1.79041 33.3153 0.350952 37.2305 0.350952Z" fill="#ED0006"/>
<path d="M37.23 0.351074C45.9651 0.351074 53.0464 7.51452 53.0464 16.3511C53.0464 25.1876 45.9651 32.3511 37.23 32.3511C33.3151 32.351 29.733 30.9114 26.9712 28.5278C30.3716 25.5931 32.5288 21.2271 32.5288 16.3511C32.5288 11.4748 30.3719 7.10803 26.9712 4.17334C29.733 1.79004 33.3153 0.351188 37.23 0.351074Z" fill="#F9A000"/>
<path d="M26.9707 4.17419C30.3713 7.10889 32.5283 11.4748 32.5283 16.351C32.5283 21.2269 30.371 25.592 26.9707 28.5267C23.5707 25.592 21.4141 21.2267 21.4141 16.351C21.4141 11.475 23.5704 7.10888 26.9707 4.17419Z" fill="#FF5E00"/>
</svg>
